<svg width="20" height="20" viewBox="0 0 20 20" fill="none" xmlns="http://www.w3.org/2000/svg">
<path fill-rule="evenodd" clip-rule="evenodd" d="M13.3698 0.916656C13.784 0.916656 14.1198 1.25244 14.1198 1.66666V2.25734C15.2384 2.35346 16.2206 2.73281 16.9569 3.43469C17.8253 4.26245 18.254 5.4458 18.25 6.8529V14.4563C18.25 15.8634 17.819 17.0478 16.9506 17.877C16.0875 18.7011 14.8873 19.0833 13.5242 19.0833H6.4758C5.11258 19.0833 3.91138 18.6929 3.04821 17.8563C2.18131 17.0161 1.75 15.8176 1.75 14.3932V6.85186C1.75 5.44363 2.18361 4.26084 3.05345 3.43397C3.79058 2.73325 4.77192 2.35381 5.88793 2.25746V1.66666C5.88793 1.25244 6.22372 0.916656 6.63793 0.916656C7.05215 0.916656 7.38793 1.25244 7.38793 1.66666V2.23268H12.6198V1.66666C12.6198 1.25244 12.9555 0.916656 13.3698 0.916656ZM12.6198 3.73268H7.38793V4.40897C7.38793 4.82319 7.05215 5.15897 6.63793 5.15897C6.22372 5.15897 5.88793 4.82319 5.88793 4.40897V3.76452C5.09782 3.85395 4.50172 4.12683 4.08692 4.52114C3.58067 5.00238 3.25 5.75419 3.25 6.85186V7.08688H16.75V6.85186L16.75 6.84955C16.7534 5.7513 16.4256 5.00052 15.9219 4.52041C15.5089 4.12663 14.913 3.85356 14.1198 3.76432V4.40897C14.1198 4.82319 13.784 5.15897 13.3698 5.15897C12.9555 5.15897 12.6198 4.82319 12.6198 4.40897V3.73268ZM16.75 8.58688H3.25V14.3932C3.25 15.5142 3.58297 16.2857 4.09216 16.7792C4.60508 17.2764 5.39179 17.5833 6.4758 17.5833H13.5242C14.616 17.5833 15.4037 17.28 15.9147 16.7921C16.4205 16.3092 16.75 15.5551 16.75 14.4563V8.58688ZM11.6667 13.5C11.6667 12.9477 12.1144 12.5 12.6667 12.5H14C14.5523 12.5 15 12.9477 15 13.5V14.8333C15 15.3856 14.5523 15.8333 14 15.8333H12.6667C12.1144 15.8333 11.6667 15.3856 11.6667 14.8333V13.5Z" fill="#4B5563"/>
</svg>
