<svg width="24" height="24" viewBox="0 0 24 24" fill="none" xmlns="http://www.w3.org/2000/svg">
<path d="M16.7562 15.5774C17.0816 15.9028 17.0816 16.4305 16.7562 16.7559C16.4307 17.0814 15.9031 17.0814 15.5777 16.7559L12.0002 13.1785L8.42283 16.7559C8.0974 17.0814 7.56976 17.0814 7.24432 16.7559C6.91888 16.4305 6.91888 15.9028 7.24432 15.5774L10.8217 12L7.24432 8.42259C6.91888 8.09715 6.91888 7.56951 7.24432 7.24408C7.56976 6.91864 8.0974 6.91864 8.42283 7.24408L12.0002 10.8215L15.5777 7.24408C15.9031 6.91864 16.4307 6.91864 16.7562 7.24408C17.0816 7.56951 17.0816 8.09715 16.7562 8.42259L13.1788 12L16.7562 15.5774Z" fill="#9C9C9C"/>
</svg>
