<svg width="24" height="24" viewBox="0 0 24 24" fill="none" xmlns="http://www.w3.org/2000/svg">
<path d="M13.1228 8.07762L15.9222 10.877L9.21627 17.5763C8.60615 18.1864 7.85548 18.6372 7.03026 18.8892L4.7401 19.5884C4.60101 19.6308 4.45384 19.5525 4.41138 19.4134C4.39608 19.3633 4.39608 19.3097 4.41138 19.2596L5.11046 16.9695C5.36243 16.1441 5.81336 15.3933 6.42359 14.7831L13.1228 8.07762ZM17.1342 5.74655L18.2532 6.86568C18.6866 7.29899 18.7137 7.98475 18.3345 8.44965L18.2532 8.53954L17.0582 9.7309L14.2689 6.94162L15.4603 5.74652C15.9226 5.28435 16.6719 5.28437 17.1342 5.74655Z" fill="#6B7280"/>
</svg>
